<svg xmlns="http://www.w3.org/2000/svg" viewBox="0 0 608.96 359.76">
  <defs>
    <style>.a,.b{fill:#fff;}.a{fill-rule:evenodd;}</style>
  </defs>
  <title>手織かたそうもく看板</title>
  <path class="a"
        d="M269.36,274.36c-4.12,12-5.86,26.56-12.33,38.78-1.69,3.21-4,6.4-5.75,9.6a30.81,30.81,0,0,1-3.07,4.59c-5.58,7-11.5,13.87-18.79,19.59-1.88,1.44-4.26,4-5.78,4.62-4.17,1.68-10.89-.55-11.14-4.23s4.2-4.81,6.91-6.54c11.33-8.14,19.23-19.68,26.5-31.86,3.26-12.24,8.79-20.4,9.59-34.55-23.57-1.29-49.3.75-58-15.74,1.66-3.12,5-4,8.46-3.07,2.43,0.66,4.06,2.73,6.52,3.83,12,5.46,28.35,3.37,43.77,4.23,2.16-14-1.66-31.78-3.07-44.53-10.83-.65-22.33-0.1-33.8-5.37a71.44,71.44,0,0,1-10-5.76c-3-2-7.16-5.35-6.52-8.06,0.55-2.38,3.12-3.6,6.91-3.07,3.12,0.44,5.08,3.2,7.68,5,4.56,3.13,13.4,5.77,20.34,6.53,4.89,0.54,8.32-.44,14.2-0.39-1.46-18.93.19-39.35,1.16-56.44-4.7,2-7.82,11.22-12.3,14.59-3.43,2.59-10.5.06-10.75-4.6-0.19-3.88,5.08-7.39,8.07-10.76,3.43-3.89,5.89-7.46,8.46-10.36,8.46-9.55,15.53-15.14,19.56-26.11,5.2-.94,12.35.18,11.14,5.76-0.42,2-2.71,4-4.59,6.91-2.87,4.37-5.64,8.5-8.84,11.52,3.76,3,1.24,10.12.75,16.12-1.33,16.52-2.27,36-.75,51.06,3.54,0.78,6.36-1.45,9.59-2.31,7.27-1.91,15.34-3.4,21.5-6.91,2.87-1.62,5-4,7.68-4.21,4.06-.37,9.7,1.49,8.82,8.06-11.88,9.64-28.77,13.52-46.07,16.9,1.44,16.57,4.28,29.71,3.87,46.45a124.08,124.08,0,0,0,36.45-5.38c7.21-2.11,11.44-7.88,17.27-9.59,2.4-.71,5.17-0.75,6.55,0,1.08,0.59,3.4,3.58,2.68,6.53-0.69,2.75-7,5.34-10.36,7.29C308.63,270.11,287.3,273.63,269.36,274.36Z"
        transform="translate(-109.69 -113.97)"/>
  <path class="a"
        d="M623.6,195.76c-5.88.67-9-1.6-11.22-4.74-0.47-9.51,4.28-16.72,4.81-25.06,0.22-3.2-1.33-7,.58-9.22,2.68-3.16,12.46-2.19,12.35,2.8-0.14,5.66-3.43,17.19-3.65,26.18C626.37,190.55,626.59,193.57,623.6,195.76Z"
        transform="translate(-109.69 -113.97)"/>
  <path class="a"
        d="M594.67,232.58c-0.19,6.67-1.74,14.75-.33,21.13-1.91,8.37-1.24,17.49-1,26.13,4.34-7,8.29-14.36,13.4-20.65,0.44-2,.41-4.52,2.21-6.57,4.2-1.31,9.29-1.9,11.14,1.67,0.88,5.32-3.51,9.28-6,13.57-1.74,3-2.93,6.46-4.95,9.34-0.77,1.1-2,1.64-2.71,2.74-2.24,3.45-4.2,7.41-6.49,11.28-3.34,5.67-4.95,6.69-4.06,13.53,1.94,14.88,5.28,25.69,11.14,37.39,2.32,1.95,4.12,4.46,7.24,5.6,1.88,2.63,1.27,7.39-1,9.24-2.16.39-4.53,0.15-7.1,0.93-11.27-7-17-19.63-20.56-34.49-3,3.45-2.24,9.89-4.06,13.53-3.7,2.54-7.54,1.69-11.47.25-2.37-3.47.72-7.2,0.55-10.37,2-8.26,5.75-15,8.21-22.85,1.08-1.51,1.77-3.38,3.07-4.67,0.8-3.87-1.41-7.91-1.85-11.87-0.91-8.35.53-16.46,0.64-25.36,0.14-9.51-.17-19.18.55-30-23.16-.51-44.16,3.84-64.41,7.18-2.49-1-5.64-1.35-7.6-2.9-5.39-12.09,14.56-7,21.94-10.47-6.41-18.5-10-36.92-10.83-60.82-7.49,2.14-16.83,2.16-17.16-6.15,6.27-5.07,15.67-4.64,23.6-7.05-1-11.87.39-17.64,0.17-29.18,1.85-4,8.73-3.53,11.86-1,2,8-.61,21.07.63,28.41,12.93-1.45,26.09.77,40.37-.12,0.72-6.51-4-12.41-4.34-17.95,13-7.57,16.19,7.83,17.82,18.81,8.15-2.29,16.22,5.29,10.53,10.13-1.66,1.41-5.31,1.42-8.29,1-0.94,9.55.94,21.49-.08,33-0.75,8.77-.55,17.2-1,25.75,6.25,2.8,21.5,2.26,31,3.16,4.37,0.41,14,6.23,7,10.6-4.56,2.85-12.24.31-18.6,0C607,234.17,602.24,232.34,594.67,232.58ZM582,160.66c-8,.14-14.4-0.07-23.38-0.26,2.79,3,.91,7.49.28,13-0.16,1.38.33,3.07,0.08,4.23-0.42,2.11-2,3.85-2.24,5.82-0.17,1.31.63,2.85,0.5,4.21-0.25,2.6-2,5.37-2.6,8.13-2.18,9.88-3.79,19.76-5.33,27.38,11.8-.3,21.09-1.68,32-1.86C581.79,200.67,583.89,181.15,582,160.66Zm-34.82,1.91c0.14-.57,2.49-2,0.75-1.93-4.72.35-10.28,0.28-14.62,1.86-0.83,13,.77,25.42,3.18,36.79,0.58,2.69,1.16,5.91,3,8C542.86,193.22,546.7,178.15,547.2,162.58Z"
        transform="translate(-109.69 -113.97)"/>
  <path class="a"
        d="M551,261.51c-0.11-2.25-.41-2.36-0.5-5,7.49-10.81,18.49,3.38,13.73,13.14a115.24,115.24,0,0,1-.39,35c-1.58,9.41-9.34,21.91-15.92,27.23-7.79,6.33-21.94,1.69-27-5.55-2.16-3.1-4.06-9.26-4.53-13.71-0.94-9.14-1.55-19.62-.63-28.79,0.25-2.28,1.21-4.62,1.38-6.94,0.3-3.88-1-8.14.91-11.54-0.25-2.18-1.24-4.67-.14-6.15,1.3-2.32,6-3.48,8.79-2.1,1.93,0.33,1.66,3,3.15,3.77C536.47,262.35,545.62,263.85,551,261.51Zm0.61,10.73c-7.13,1.18-15.34-.26-22.63.5-0.44,7.32-1.82,15.61-.66,22.29,9.29,0.83,15.2-.17,23.41-0.12C553.36,286.2,552.92,280.84,551.56,272.24ZM528.9,306.92c-0.22,7.72,2.6,15.61,9.59,17.08,6.05-4,9.15-10.78,11.88-17.93A188,188,0,0,0,528.9,306.92Z"
        transform="translate(-109.69 -113.97)"/>
  <path class="a"
        d="M496.85,321.84c-2.49-11.59,1.13-26-7.66-33.63,0.5,9.76.22,21,1.46,31.83,1.08,9.15,6.13,19,3.32,28.35-3.34,1.27-6.44,0-9.64-1.71-7.46-21-4.34-40.24-8.65-61.24-6.83,11-9.37,29-10.17,43.61-0.17,3,.75,5.44-1.35,7.71a9.83,9.83,0,0,1-9.26-2.1c-0.75-8.4.19-15.67,1-24.59,0.22-2.54,1.08-4.08,1.77-6.57,2.71-9.69,2.27-18.69,7.9-24.76,2.49-2.66,6.13-3.86,9.45-6.35a9.53,9.53,0,0,0-.44-3.83c-8.12-1.75-12.93-6.91-15.31-14.65-0.05-5.35-1.46-10.51-1.52-16.09-0.11-12.6,6.88-23.32,10-34.79-2.71-3.34-6.47-4.68-8.26-8.26-2.87-5.83-3.23-14.18-3.12-19.52,0.39-15.13,7.24-29,13.32-40.61,2.27-4.27,5.28-7.59,5.45-13.95,7.6-5.62,15.06,3,8.7,10.18a96.34,96.34,0,0,0,9.12,13.24c3.15,9.71,5.67,19.68,4.86,29.46-0.77,9.37-4.81,21.07-10.58,25.57-3.1,2.44-8,2.47-7.88,8.24,0.33,1.62,2.9.9,3.51,2.22,6.88,11.59,12.46,28.56,11,44.31-3.48,5.46-8.54,9.38-6.88,19.74,2.43,2.13,5.75,2.52,8.57,4.8,8.12,6.63,12.55,16.28,12.21,31.61-0.08,4.18.61,9.17-.91,11.53C504.61,325.13,499.94,323.77,496.85,321.84Zm-16-132.91c1.57-6.85,6.11-13.23,4.92-20.46,0.63-8.37-2.21-19.87-7.85-25.17-7.38,13.07-13.1,31.5-6.25,48.14a11.59,11.59,0,0,0,3.9,1.84C477.72,192.18,478.94,190.23,480.88,188.92Zm-11.08,54.4c0.33,4.15,2.07,14,6.83,13.67,4.06-.25,5-7.3,5.14-10.47,0.44-9-3.76-21.42-7.52-27.11C472.2,225.75,469,233.57,469.79,243.32Z"
        transform="translate(-109.69 -113.97)"/>
  <path class="b"
        d="M149.42,463.07a7.34,7.34,0,0,1-6.68,3.39q-5,0-9.68-4.64t-4.7-8.6q0-3.06,3.28-3.06a4.63,4.63,0,0,1,2.83,1.36l3.62,3.4a7,7,0,0,0,4.3,2q1.24,0,4.07-10.64a87.55,87.55,0,0,0,3.28-22.87q0-5.43-4.07-5.43a29.86,29.86,0,0,0-8,1.81,238.86,238.86,0,0,1-12.9,31.92q-3.51,7.13-7.36,7.13-3.17,0-3.17-3.28a17.09,17.09,0,0,1,2-7.58q8-16.41,11.43-25.36a30.28,30.28,0,0,1-6.11.68,16.39,16.39,0,0,1-7.58-1.92q-4.3-2.26-4.3-5.43a2.4,2.4,0,0,1,2.72-2.72,13,13,0,0,1,4.58,1.19,12.85,12.85,0,0,0,4.47,1.19q2.72,0,9.28-2,1.13-4,1.92-7.81Q129.72,399,129.72,395q0-2.83,2.94-2.83,2.49,0,5.77,5.66,3.06,5.21,3.06,8a26.34,26.34,0,0,1-1.13,5,27,27,0,0,1,5.55-.68,11.53,11.53,0,0,1,9.17,3.9,14.07,14.07,0,0,1,3.4,9.56A96.21,96.21,0,0,1,155.92,446Q153.38,456.73,149.42,463.07Zm29.88-21.73q-3.28,0-3.28-3.17,0-2.15,3.28-4.58t3.28-4q0-3.06-9.17-8.6-2.49-1.47-6.79-4.19-3.51-2.38-3.51-4.3,0-2.94,3.17-2.94,5.66,0,14.94,6.22,10.53,7,10.53,13.58a11,11,0,0,1-4,8.38A12.48,12.48,0,0,1,179.3,441.34Z"
        transform="translate(-109.69 -113.97)"/>
  <path class="b"
        d="M262,412.59a76,76,0,0,1-12.56,3.62,176.76,176.76,0,0,1-16,39.5q-4.41,7.7-8,7.7T222,459.79q0-3.51,3.06-8.71a141.65,141.65,0,0,0,14.6-33.28,60.09,60.09,0,0,1-7.81.57,12.13,12.13,0,0,1-7.07-2.43q-3.45-2.43-3.45-5.15t3.28-2.83a11.1,11.1,0,0,1,3.74,1,12.9,12.9,0,0,0,3.06,1A61.16,61.16,0,0,0,242,408.74q1.13-5.09,1.81-8.49a21,21,0,0,1-1.47-7.24q0-3.06,2.94-3.06,2,0,4.64,4.64,2.26,4.3,2.26,6.45a39.4,39.4,0,0,1-.45,5.43q4-1.25,7.13-2.49a10.41,10.41,0,0,1,3.74-.79q4.53,0,4.53,3.85Q267.13,410.67,262,412.59Zm15.17,58.52q-11.09,0-17.21-4.75-6.57-5-6.56-14.49,0-15.73,18.34-26.83-1.36.11-3.74,0.23-5.66.57-5.89,0.57-4.19,0-4.19-3.28,0-2.6,6.23-4.3A46.17,46.17,0,0,1,274.94,417a48.82,48.82,0,0,1,8.26.68q4.75,1,4.75,4.53a3.85,3.85,0,0,1-2.49,3.51q-23.2,11.66-23.2,25.7,0,10.19,14.37,10.19a42.54,42.54,0,0,0,7.75-.9,43.08,43.08,0,0,1,6.06-.91q3.85,0,3.85,3.28,0,3.85-5.21,6A30.25,30.25,0,0,1,277.21,471.11Z"
        transform="translate(-109.69 -113.97)"/>
  <path class="b"
        d="M369.34,397.54a45.36,45.36,0,0,0-6.9,1.7,39.72,39.72,0,0,1-11,1.7,10.47,10.47,0,0,1-6-1.92q-3.17-2-3.17-4.64t3.17-2.72a8.18,8.18,0,0,1,3.11.91,8.08,8.08,0,0,0,3,.91,37.25,37.25,0,0,0,9.79-2,37.54,37.54,0,0,1,10-2,10.31,10.31,0,0,1,5.43,1.59q3.17,2,3.17,5.09,0,2.49-9.85,11a224.56,224.56,0,0,1-20.26,15.39,369.8,369.8,0,0,0,39.05-8.26,32.14,32.14,0,0,1,6.68-1.36,4.58,4.58,0,0,1,3.4,1.53,5,5,0,0,1,1.47,3.56,3.68,3.68,0,0,1-3.17,3.85q-5.21.57-15.73,2.72-9.06,6.23-13,12.62a27.36,27.36,0,0,0-3.91,14.55q0,9.51,13.13,13.36,5.32,1.47,5.32,4.41t-4.08,2.83a23.91,23.91,0,0,1-16.7-6.23q-6.85-6.22-6.85-14.37,0-13.58,10.53-24.11-13.7,2.61-27.17,4.42-4.19,1.92-6.23,1.81a4.49,4.49,0,0,1-3-2,5.19,5.19,0,0,1-1.19-3.45,4,4,0,0,1,3.06-3.62Q354.85,411.46,369.34,397.54Z"
        transform="translate(-109.69 -113.97)"/>
  <path class="b"
        d="M476.08,468.17a28.73,28.73,0,0,1-14.37,4.07q-3.17,0-3.17-3.17,0-2.26,4.08-4.3,2.26-.91,6.79-3.06,19.47-10.19,19.47-27.62,0-12.91-9.06-12.9-4.3,0-18.56,5a19,19,0,0,1-6.45,1.13,18.24,18.24,0,0,1-7.81-1.59q-3.74-1.7-3.74-4.3,0-2.94,3.17-2.94a18.69,18.69,0,0,1,4,.62,18.69,18.69,0,0,0,4.07.62,12.09,12.09,0,0,0,4.53-1q14.37-5.77,20.6-5.77,17.88,0,17.88,21.85a35,35,0,0,1-5.32,18.56A44.37,44.37,0,0,1,476.08,468.17Zm4.87-64.63a39.56,39.56,0,0,1-6.68,2.38q-2.15.68-4.19,1.47a14.44,14.44,0,0,1-4.19.9q-2.94,0-2.94-2.71,0-2.26,5.21-5a32.75,32.75,0,0,1-7.81-3.85q-3.85-2.83-3.85-5.32,0-2.83,3.06-2.83a8.88,8.88,0,0,1,3.74,1.13q1.81,0.91,3.62,1.7a80.26,80.26,0,0,0,12.56,3.4q4.41,0.79,4.41,4.41A4.64,4.64,0,0,1,480.95,403.53Z"
        transform="translate(-109.69 -113.97)"/>
  <path class="b"
        d="M584.74,472.47q-9.85,0-16-4.87-6.68-5.21-6.68-14.83a50.06,50.06,0,0,1,1.36-11A21.88,21.88,0,0,1,553,437.72a10,10,0,0,1-4.19-8.15q0-6.34,6.68-10.53a89.27,89.27,0,0,1,12-5.89q-12.9-5.09-12.9-10.07,0-2.49,2.83-2.49,1.24,0,7.13,2.6a39.29,39.29,0,0,0,7.7,2.71q0.34-2.38.57-4.75-4.07-5.88-4.07-11,0-2.83,3.06-2.83,1.36,0,4.08,4.07a38.27,38.27,0,0,1,3.62,6.34,13.72,13.72,0,0,1,1,6.45q-0.79,9.06-6.23,29.2a36.31,36.31,0,0,0,4.08-1,18.75,18.75,0,0,1,4.19-.68q3.74,0,3.74,3.85,0,2.83-4.64,4.75a31.91,31.91,0,0,1-9.62,1.92,53.89,53.89,0,0,0-1.25,10.87,9.78,9.78,0,0,0,3.57,7.87q3.57,3,10.36,3a20.26,20.26,0,0,0,12.45-3.79,12.11,12.11,0,0,0,5.09-10.24,25.94,25.94,0,0,0-2.72-10.75,34.36,34.36,0,0,0-7.24-10.3q-5-4.87-5-7.58,0-3.28,3.28-3.28,5.32,0,12.11,8.83,8.83,11.43,8.83,22.3a20.91,20.91,0,0,1-8.15,17.09Q595.83,472.47,584.74,472.47Zm-27.39-43.24q0,1.25,1.92,2.49a17.84,17.84,0,0,0,6.22,1.92q1.47-4.87,4.19-14.49Q557.35,424.81,557.35,429.23Z"
        transform="translate(-109.69 -113.97)"/>
  <path class="b"
        d="M715.13,473.71q-1.92-.11-5.77-2.83-2.38-1.81-7.81-5.77-15.17-10.53-38.48-20.71Q658,442.13,658,437.6q0-3.74,3.62-6.68,28.86-23.65,28.86-29.09A20,20,0,0,0,689,397a18.77,18.77,0,0,1-1.42-6.28q0-2.49,2.83-2.49t5.83,4.92q2.89,4.92,2.89,8.54,0,6.68-11.77,18a213,213,0,0,1-19.58,16.64q-1.13.79,0.11,1.36a278.35,278.35,0,0,1,39.16,19.7,34.23,34.23,0,0,1,8.6,7.24q3.06,3.74,2.94,6Q718.53,473.94,715.13,473.71Z"
        transform="translate(-109.69 -113.97)"/>
</svg>
